<svg width="25" height="24" viewBox="0 0 25 24" fill="none" xmlns="http://www.w3.org/2000/svg">
<g id="Search Icon">
<path id="&#240;&#159;&#150;&#188;&#239;&#184;&#143; Icon" fill-rule="evenodd" clip-rule="evenodd" d="M19.5246 19.7812L20.409 18.8968C20.7027 18.6031 20.7027 18.1281 20.4121 17.8343L17.2964 14.7187C17.1558 14.5781 16.9652 14.5 16.7652 14.5H16.2558C17.1183 13.3969 17.6308 12.0093 17.6308 10.5C17.6308 6.90936 14.7215 4 11.1308 4C7.54022 4 4.63086 6.90936 4.63086 10.5C4.63086 14.0906 7.54022 17 11.1308 17C12.6402 17 14.0277 16.4875 15.1308 15.625V16.1343C15.1308 16.3344 15.209 16.525 15.3496 16.6656L18.4652 19.7812C18.7589 20.075 19.2339 20.075 19.5246 19.7812ZM11.1308 14.5C8.92147 14.5 7.13085 12.7125 7.13085 10.5C7.13085 8.29061 8.91836 6.49999 11.1308 6.49999C13.3402 6.49999 15.1308 8.2875 15.1308 10.5C15.1308 12.7094 13.3433 14.5 11.1308 14.5Z" fill="white"/>
</g>
</svg>
